<svg width="100" height="108" viewBox="0 0 100 108" fill="none" xmlns="http://www.w3.org/2000/svg">
<path d="M76.7564 42.216V11.5135C76.7564 8.4599 75.5434 5.53141 73.3842 3.37222C71.225 1.21302 68.2965 0 65.243 0H11.5135C8.4599 0 5.53141 1.21302 3.37222 3.37222C1.21302 5.53141 0 8.4599 0 11.5135V95.9455C0 98.9991 1.21302 101.928 3.37222 104.087C5.53141 106.246 8.4599 107.459 11.5135 107.459H65.243C68.2965 107.459 71.225 106.246 73.3842 104.087C75.5434 101.928 76.7564 98.9991 76.7564 95.9455V69.0808C74.7207 69.0808 72.7684 69.8895 71.3289 71.3289C69.8895 72.7684 69.0808 74.7207 69.0808 76.7564V95.9455C69.0808 96.9634 68.6765 97.9396 67.9567 98.6593C67.237 99.379 66.2608 99.7834 65.243 99.7834H11.5135C10.4956 99.7834 9.51945 99.379 8.79972 98.6593C8.07999 97.9396 7.67564 96.9634 7.67564 95.9455V11.5135C7.67564 10.4956 8.07999 9.51945 8.79972 8.79972C9.51945 8.07998 10.4956 7.67564 11.5135 7.67564H65.243C66.2608 7.67564 67.237 8.07998 67.9567 8.79972C68.6765 9.51945 69.0808 10.4956 69.0808 11.5135V49.8917C71.1165 49.8917 73.0688 49.083 74.5083 47.6435C75.9478 46.2041 76.7564 44.2517 76.7564 42.216Z" fill="#1A0859"/>
<path d="M57.5674 19.189H19.1891C18.1713 19.189 17.1951 19.5934 16.4754 20.3131C15.7557 21.0328 15.3513 22.009 15.3513 23.0268C15.3513 24.0447 15.7557 25.0209 16.4754 25.7406C17.1951 26.4603 18.1713 26.8647 19.1891 26.8647H57.5674C58.5852 26.8647 59.5614 26.4603 60.2811 25.7406C61.0008 25.0209 61.4052 24.0447 61.4052 23.0268C61.4052 22.009 61.0008 21.0328 60.2811 20.3131C59.5614 19.5934 58.5852 19.189 57.5674 19.189ZM61.4052 38.3781C61.4052 37.3603 61.0008 36.3841 60.2811 35.6644C59.5614 34.9447 58.5852 34.5403 57.5674 34.5403H19.1891C18.1713 34.5403 17.1951 34.9447 16.4754 35.6644C15.7557 36.3841 15.3513 37.3603 15.3513 38.3781C15.3513 39.396 15.7557 40.3722 16.4754 41.0919C17.1951 41.8116 18.1713 42.216 19.1891 42.216H57.5674C58.5852 42.216 59.5614 41.8116 60.2811 41.0919C61.0008 40.3722 61.4052 39.396 61.4052 38.3781ZM19.1891 49.8916C18.1713 49.8916 17.1951 50.2959 16.4754 51.0157C15.7557 51.7354 15.3513 52.7116 15.3513 53.7294C15.3513 54.7473 15.7557 55.7234 16.4754 56.4432C17.1951 57.1629 18.1713 57.5672 19.1891 57.5672H34.5404C35.5583 57.5672 36.5344 57.1629 37.2542 56.4432C37.9739 55.7234 38.3782 54.7473 38.3782 53.7294C38.3782 52.7116 37.9739 51.7354 37.2542 51.0157C36.5344 50.2959 35.5583 49.8916 34.5404 49.8916H19.1891Z" fill="#1A0859"/>
<path d="M43.8049 92.1079C43.234 92.1076 42.6704 91.9799 42.1551 91.7342C41.6398 91.4884 41.1858 91.1308 40.8262 90.6874C40.4666 90.244 40.2105 89.7259 40.0765 89.171C39.9425 88.616 39.9339 88.0382 40.0516 87.4795L42.9376 73.7362C43.0912 73.0094 43.4525 72.3428 43.9776 71.8173L80.1299 35.6689C82.3237 33.5755 85.2395 32.4075 88.2719 32.4075C91.3042 32.4075 94.22 33.5755 96.4138 35.6689C97.4831 36.738 98.3314 38.0074 98.9101 39.4044C99.4888 40.8014 99.7867 42.2987 99.7867 43.8108C99.7867 45.323 99.4888 46.8203 98.9101 48.2173C98.3314 49.6143 97.4831 50.8836 96.4138 51.9528L60.2538 88.0935C59.7298 88.6213 59.0627 88.9842 58.3349 89.1374L44.5917 92.0273C44.3328 92.0803 44.0692 92.1073 43.8049 92.1079ZM50.2333 76.4342L48.7903 83.3039L55.6485 81.8609L90.9871 46.5184C91.7066 45.7987 92.1108 44.8227 92.1108 43.8051C92.1108 42.7874 91.7066 41.8114 90.9871 41.0917C90.2574 40.3914 89.2852 40.0003 88.2738 40.0003C87.2624 40.0003 86.2901 40.3914 85.5604 41.0917L50.2333 76.4342Z" fill="#D80451"/>
</svg>
