<svg width="115" height="90" viewBox="0 0 115 90" fill="none" xmlns="http://www.w3.org/2000/svg">
<path d="M11.8116 87.9037C11.9027 88.4661 12.1928 88.977 12.629 89.3434C13.0652 89.7099 13.6185 89.9074 14.1882 89.9001H22.1735C22.5186 89.8972 22.8589 89.8191 23.1709 89.6714C23.4828 89.5236 23.7588 89.3097 23.9797 89.0445C24.202 88.7854 24.3659 88.4815 24.4602 88.1535C24.5545 87.8254 24.577 87.4808 24.5263 87.1432L19.5592 56.9132H22.4586C58.5826 60.2166 74.3155 81.3919 74.4581 81.582C74.6791 81.8925 74.9716 82.1452 75.3107 82.3189C75.6499 82.4926 76.0259 82.5823 76.4069 82.5802C76.65 82.5872 76.8922 82.5468 77.1199 82.4614C77.6008 82.3102 78.0212 82.0099 78.3202 81.604C78.6193 81.1982 78.7815 80.7078 78.7835 80.2036V53.7048H83.7505C84.3809 53.7048 84.9853 53.4544 85.431 53.0087C85.8767 52.563 86.1271 51.9585 86.1271 51.3282V34.1931C86.1271 33.5628 85.8767 32.9583 85.431 32.5126C84.9853 32.0669 84.3809 31.8165 83.7505 31.8165H78.7835V5.46031C78.7708 4.98694 78.6169 4.52818 78.3417 4.14284C78.0665 3.75751 77.6824 3.46319 77.2387 3.29762C76.764 3.13814 76.251 3.1327 75.773 3.28207C75.295 3.43145 74.8764 3.72801 74.577 4.12943C74.4106 4.36708 57.1567 26.9446 22.1497 28.9171H7.41492C5.46472 28.917 3.59297 29.6851 2.20511 31.0552C0.817239 32.4253 0.0250025 34.2869 0 36.237V49.4983C0.00490146 51.3441 0.700253 53.1212 1.94929 54.4802C3.19833 55.8392 4.91065 56.6816 6.74948 56.8419L11.8116 87.9037ZM19.3691 85.1469H16.1845L11.5739 56.9132H14.7585L19.3691 85.1469ZM81.374 36.5697V48.8566H78.7835V36.5697H81.374ZM74.0303 11.6394V73.9295C67.0432 67.0849 51.3103 55.1308 24.5263 52.2789V33.4088C43.07 32.1824 60.5926 24.4768 74.0303 11.6394ZM4.75315 49.4983V36.237C4.75315 35.531 5.03359 34.854 5.53277 34.3548C6.03194 33.8556 6.70897 33.5752 7.41492 33.5752H19.7731V52.16H7.41492C6.70897 52.16 6.03194 51.8796 5.53277 51.3804C5.03359 50.8812 4.75315 50.2042 4.75315 49.4983ZM92.9241 28.4418C93.115 28.8543 93.4203 29.2034 93.8036 29.4478C94.1869 29.6921 94.6322 29.8213 95.0868 29.8202C95.4306 29.8178 95.7703 29.745 96.085 29.6063L110.511 23.0945C110.797 22.9662 111.056 22.7823 111.271 22.5536C111.486 22.3248 111.653 22.0557 111.764 21.7618C111.874 21.4679 111.926 21.155 111.914 20.8413C111.903 20.5275 111.83 20.219 111.699 19.9337C111.435 19.3651 110.958 18.9238 110.37 18.7057C109.783 18.4876 109.133 18.5104 108.562 18.7691L94.1124 25.281C93.8259 25.4093 93.5676 25.5931 93.3525 25.8219C93.1374 26.0506 92.9697 26.3197 92.8593 26.6136C92.7488 26.9075 92.6976 27.2204 92.7087 27.5342C92.7199 27.848 92.7931 28.1565 92.9241 28.4418ZM98.6279 0.659624L87.9333 12.3286C87.6193 12.6672 87.4107 13.0899 87.3331 13.5451C87.2555 14.0003 87.3121 14.4683 87.4962 14.8918C87.6802 15.3154 87.9836 15.6761 88.3694 15.9299C88.7551 16.1838 89.2064 16.3198 89.6682 16.3213C89.9981 16.3235 90.3248 16.257 90.6276 16.1261C90.9304 15.9952 91.2026 15.8026 91.4269 15.5608L102.121 3.868C102.5 3.3979 102.686 2.80119 102.641 2.19907C102.596 1.59695 102.323 1.03457 101.879 0.626157C101.434 0.217741 100.85 -0.00608995 100.247 0.000126084C99.6429 0.00634212 99.0641 0.242138 98.6279 0.659624ZM110.511 58.9095L96.085 52.3739C95.801 52.2444 95.4942 52.1721 95.1823 52.1611C94.8703 52.1501 94.5593 52.2007 94.2669 52.31C93.9744 52.4192 93.7064 52.585 93.4781 52.7978C93.2497 53.0106 93.0655 53.2663 92.936 53.5503C92.8065 53.8343 92.7342 54.1411 92.7232 54.453C92.7122 54.765 92.7628 55.076 92.872 55.3685C92.9813 55.6609 93.147 55.9289 93.3599 56.1572C93.5727 56.3856 93.8284 56.5698 94.1124 56.6993L108.562 63.2349C108.868 63.3743 109.2 63.4472 109.536 63.4488C110.078 63.4463 110.603 63.2587 111.024 62.9172C111.444 62.5757 111.735 62.1007 111.849 61.571C111.963 61.0413 111.892 60.4886 111.649 60.0045C111.405 59.5205 111.004 59.1341 110.511 58.9095ZM88.0046 69.6516L98.6279 81.3444C98.8522 81.5863 99.1244 81.7788 99.4272 81.9097C99.73 82.0407 100.057 82.1071 100.387 82.1049C100.976 82.1034 101.543 81.8832 101.979 81.487C102.441 81.0608 102.715 80.469 102.742 79.8409C102.769 79.2129 102.546 78.5999 102.121 78.136L91.4982 66.4433C91.2942 66.1902 91.0406 65.9817 90.7528 65.8306C90.4651 65.6795 90.1494 65.589 89.8253 65.5647C89.5013 65.5405 89.1756 65.5829 88.8686 65.6895C88.5616 65.796 88.2797 65.9644 88.0403 66.1843C87.8009 66.4041 87.6092 66.6707 87.477 66.9675C87.3447 67.2644 87.2747 67.5852 87.2714 67.9102C87.268 68.2352 87.3314 68.5574 87.4575 68.8569C87.5836 69.1564 87.7698 69.4269 88.0046 69.6516ZM111.699 38.6135H96.6791C96.0488 38.6135 95.4443 38.8639 94.9986 39.3096C94.5529 39.7553 94.3025 40.3598 94.3025 40.9901C94.3025 41.6204 94.5529 42.2249 94.9986 42.6706C95.4443 43.1163 96.0488 43.3667 96.6791 43.3667H111.699C112.329 43.3667 112.934 43.1163 113.38 42.6706C113.825 42.2249 114.076 41.6204 114.076 40.9901C114.076 40.3598 113.825 39.7553 113.38 39.3096C112.934 38.8639 112.329 38.6135 111.699 38.6135Z" fill="#1A0859"/>
</svg>
