<svg width="119" height="105" viewBox="0 0 119 105" fill="none" xmlns="http://www.w3.org/2000/svg">
<path d="M91.6703 13.1405C92.1289 13.1405 92.5686 12.9584 92.8929 12.6341C93.2171 12.3099 93.3993 11.8701 93.3993 11.4115C93.3993 11.1631 93.4978 10.9248 93.6733 10.7489C93.8488 10.573 94.0868 10.4739 94.3353 10.4732H96.5715C96.6953 10.4723 96.818 10.4959 96.9327 10.5427C97.0473 10.5894 97.1516 10.6584 97.2394 10.7456C97.3273 10.8328 97.397 10.9366 97.4446 11.0509C97.4922 11.1651 97.5167 11.2877 97.5167 11.4115V12.6149C97.5167 12.8638 97.4178 13.1024 97.2419 13.2784C97.0659 13.4544 96.8272 13.5532 96.5784 13.5532C95.6138 13.5538 94.6888 13.9373 94.0067 14.6194C93.3246 15.3015 92.9411 16.2264 92.9405 17.1911V19.146C92.9405 19.6046 93.1227 20.0444 93.447 20.3686C93.7712 20.6929 94.211 20.875 94.6696 20.875C95.1281 20.875 95.5679 20.6929 95.8922 20.3686C96.2164 20.0444 96.3986 19.6046 96.3986 19.146V17.1911C96.3986 17.1434 96.4175 17.0976 96.4512 17.0639C96.485 17.0302 96.5307 17.0112 96.5784 17.0112C97.744 17.01 98.8615 16.5464 99.6857 15.7222C100.51 14.898 100.973 13.7805 100.975 12.6149V11.4115C100.973 10.2447 100.509 9.12617 99.6833 8.30176C98.8576 7.47736 97.7383 7.0146 96.5715 7.01521H94.3353C93.1699 7.01643 92.0526 7.48008 91.2288 8.30435C90.4049 9.12862 89.9419 10.2461 89.9413 11.4115C89.9413 11.8701 90.1234 12.3099 90.4477 12.6341C90.7719 12.9584 91.2117 13.1405 91.6703 13.1405ZM94.854 22.8807C94.512 22.8807 94.1777 22.9821 93.8934 23.1721C93.6091 23.3621 93.3875 23.6321 93.2566 23.948C93.1257 24.264 93.0915 24.6116 93.1582 24.947C93.2249 25.2824 93.3896 25.5905 93.6314 25.8323C93.8732 26.0741 94.1813 26.2388 94.5167 26.3055C94.8521 26.3722 95.1997 26.338 95.5157 26.2071C95.8316 26.0762 96.1016 25.8546 96.2916 25.5703C96.4816 25.286 96.583 24.9517 96.583 24.6097C96.583 24.1511 96.4008 23.7114 96.0766 23.3871C95.7523 23.0629 95.3126 22.8807 94.854 22.8807ZM115.66 88.203H110.68V31.3805C111.794 31.0928 112.78 30.4437 113.485 29.5351C114.19 28.6264 114.574 27.5096 114.576 26.3595V5.18706C114.575 3.81193 114.027 2.49364 113.055 1.52128C112.083 0.54891 110.764 0.00182985 109.389 0H79.8807C78.5056 0.00182985 77.1873 0.54891 76.2149 1.52128C75.2425 2.49364 74.6955 3.81193 74.6936 5.18706V17.138H39.8827V5.18706C39.8809 3.81193 39.3338 2.49364 38.3614 1.52128C37.3891 0.54891 36.0708 0.00182985 34.6956 0H5.18706C3.81193 0.00182985 2.49364 0.54891 1.52127 1.52128C0.548909 2.49364 0.00182985 3.81193 0 5.18706V26.3595C0.00122088 27.7348 0.548105 29.0534 1.5206 30.0259C2.4931 30.9984 3.81174 31.5453 5.18706 31.5465H7.35409V88.203H2.37452C1.74495 88.2036 1.14133 88.454 0.696155 88.8992C0.250978 89.3444 0.000610349 89.948 0 90.5776L0 95.1998C0.00427223 97.6292 0.971893 99.9578 2.69064 101.675C4.40939 103.392 6.73896 104.357 9.16841 104.359H108.866C111.295 104.357 113.625 103.392 115.344 101.675C117.062 99.9578 118.03 97.6292 118.034 95.1998V90.5776C118.034 89.948 117.783 89.3444 117.338 88.8992C116.893 88.454 116.289 88.2036 115.66 88.203ZM78.1517 5.18706C78.1523 4.72868 78.3346 4.28925 78.6588 3.96513C78.9829 3.64101 79.4223 3.45865 79.8807 3.45804H109.389C109.848 3.45865 110.287 3.64101 110.611 3.96513C110.935 4.28925 111.118 4.72868 111.118 5.18706V26.3595C111.118 26.8179 110.935 27.2573 110.611 27.5814C110.287 27.9055 109.848 28.0879 109.389 28.0885H100.859C100.481 28.0874 100.106 28.1614 99.756 28.3063C99.4062 28.4511 99.0885 28.6639 98.8215 28.9323L94.031 33.7228L92.0415 29.693C91.8062 29.2081 91.4389 28.7993 90.9818 28.5139C90.5246 28.2284 89.9961 28.0778 89.4571 28.0793H79.8807C79.4239 28.0787 78.9859 27.8976 78.662 27.5754C78.3381 27.2533 78.1547 26.8162 78.1517 26.3595V5.18706ZM18.3045 82.8777H99.7298C100.188 82.8777 100.628 82.6955 100.952 82.3712C101.277 82.047 101.459 81.6072 101.459 81.1486V31.5442H107.222V88.203H72.7387C71.7604 88.203 70.8222 88.5917 70.1305 89.2834C69.4387 89.9751 69.0501 90.9133 69.0501 91.8916C69.0501 91.9528 69.0258 92.0114 68.9826 92.0546C68.9394 92.0979 68.8807 92.1221 68.8196 92.1221H49.2056C49.1444 92.1221 49.0858 92.0979 49.0426 92.0546C48.9993 92.0114 48.975 91.9528 48.975 91.8916C48.975 90.9133 48.5864 89.9751 47.8947 89.2834C47.2029 88.5917 46.2647 88.203 45.2865 88.203H10.8121V31.5442H16.5755V81.1602C16.5755 81.6187 16.7577 82.0585 17.0819 82.3828C17.4062 82.707 17.846 82.8892 18.3045 82.8892V82.8777ZM28.6326 49.7335H38.9606C39.284 49.7335 39.5942 49.862 39.8229 50.0907C40.0516 50.3194 40.1801 50.6296 40.1801 50.953V56.117C40.1962 56.9657 40.043 57.8091 39.7294 58.5978C39.4158 59.3866 38.948 60.1049 38.3536 60.7108C37.7591 61.3166 37.0498 61.7979 36.2672 62.1264C35.4845 62.455 34.6442 62.6242 33.7954 62.6242C32.9466 62.6242 32.1063 62.455 31.3237 62.1264C30.541 61.7979 29.8317 61.3166 29.2372 60.7108C28.6428 60.1049 28.1751 59.3866 27.8614 58.5978C27.5478 57.8091 27.3946 56.9657 27.4107 56.117V50.953C27.4144 50.6314 27.5447 50.3242 27.7734 50.098C28.0022 49.8718 28.3109 49.745 28.6326 49.745V49.7335ZM27.4107 46.4415V44.2398C27.4107 43.6658 27.9156 43.0249 28.2568 43.0249H40.1801V45.4294C40.1801 45.6534 40.0913 45.8682 39.9331 46.0268C39.7749 46.1855 39.5603 46.2749 39.3363 46.2755C39.2757 46.272 39.2149 46.272 39.1542 46.2755H28.6326C28.2192 46.2799 27.8083 46.3396 27.4107 46.453V46.4415ZM35.461 66.3252C35.458 66.7666 35.2797 67.1888 34.9654 67.4988C34.6511 67.8087 34.2265 67.9812 33.785 67.9781C33.3436 67.9751 32.9214 67.7968 32.6115 67.4825C32.3015 67.1681 32.129 66.7436 32.1321 66.3021V65.818C33.2283 66.007 34.3487 66.007 35.4449 65.818L35.461 66.3252ZM33.7966 71.4246C35.0251 71.4249 36.2129 70.984 37.1438 70.1822C38.0746 69.3804 38.6866 68.271 38.8684 67.056L41.4965 67.5655C43.2034 67.8927 44.7432 68.8041 45.8513 70.1432C46.9594 71.4822 47.5667 73.1653 47.5688 74.9034V79.4311H20.0336V74.9034C20.0357 73.1653 20.6429 71.4822 21.751 70.1432C22.8591 68.8041 24.3989 67.8927 26.1059 67.5655L28.7294 67.0675C28.911 68.2818 29.5223 69.3905 30.4522 70.1922C31.3821 70.9939 32.5688 71.4353 33.7966 71.4362V71.4246ZM79.0738 49.745H89.4018C89.7255 49.745 90.0359 49.8734 90.265 50.1021C90.494 50.3307 90.623 50.6409 90.6237 50.9646V56.1286C90.6398 56.9772 90.4866 57.8206 90.1729 58.6093C89.8593 59.3981 89.3916 60.1164 88.7971 60.7223C88.2027 61.3281 87.4934 61.8094 86.7107 62.138C85.9281 62.4665 85.0878 62.6357 84.239 62.6357C83.3902 62.6357 82.5499 62.4665 81.7672 62.138C80.9846 61.8094 80.2753 61.3281 79.6808 60.7223C79.0863 60.1164 78.6186 59.3981 78.305 58.6093C77.9914 57.8206 77.8381 56.9772 77.8543 56.1286V50.9646C77.8543 50.6411 77.9828 50.3309 78.2115 50.1022C78.4402 49.8735 78.7504 49.745 79.0738 49.745ZM77.8543 45.4409V43.0364H89.7776C90.1188 43.0364 90.6237 43.6773 90.6237 44.2514V46.453C90.2256 46.3435 89.8147 46.2877 89.4018 46.287H78.8802C78.8195 46.2835 78.7587 46.2835 78.698 46.287C78.474 46.2864 78.2594 46.197 78.1013 46.0384C77.9431 45.8798 77.8543 45.6649 77.8543 45.4409ZM85.9023 66.3137C85.9023 66.7551 85.7269 67.1785 85.4148 67.4906C85.1026 67.8028 84.6793 67.9781 84.2378 67.9781C83.7964 67.9781 83.373 67.8028 83.0609 67.4906C82.7487 67.1785 82.5733 66.7551 82.5733 66.3137V65.8295C83.6748 66.0201 84.8008 66.0201 85.9023 65.8295V66.3137ZM84.2378 71.4362C85.4662 71.4359 86.6538 70.9949 87.5845 70.1932C88.5153 69.3914 89.1274 68.2823 89.3096 67.0675L91.9331 67.5655C93.6401 67.8927 95.1799 68.8041 96.2879 70.1432C97.396 71.4822 98.0033 73.1653 98.0054 74.9034V79.4311H70.4771V74.9034C70.4792 73.1653 71.0865 71.4822 72.1946 70.1432C73.3027 68.8041 74.8424 67.8927 76.5494 67.5655L79.1729 67.0675C79.3545 68.2814 79.9655 69.3898 80.8949 70.1915C81.8243 70.9931 83.0104 71.4348 84.2378 71.4362ZM39.8827 20.5961H74.6936V26.3595H39.8827V20.5961ZM38.5571 29.8175H76.0192C76.5046 30.3617 77.0995 30.797 77.765 31.095C78.4305 31.393 79.1515 31.5469 79.8807 31.5465H89.1021L91.4305 36.261C91.6175 36.6384 91.8913 36.966 92.2296 37.2169C92.5679 37.4678 92.9609 37.6348 93.3763 37.7041C93.5188 37.7271 93.663 37.7387 93.8074 37.7387C94.511 37.7381 95.1858 37.4588 95.6839 36.9618L97.9893 34.6565V66.9338C96.4805 65.5153 94.5989 64.5557 92.5648 64.1674L90.4323 63.7616C91.5686 62.8398 92.4848 61.676 93.1142 60.3551C93.7435 59.0342 94.0701 57.5894 94.0702 56.1263V44.2514C94.0702 42.0405 92.302 39.5784 89.7661 39.5784H76.1253C75.6667 39.5784 75.2269 39.7606 74.9027 40.0848C74.5784 40.4091 74.3962 40.8489 74.3962 41.3074V45.4409C74.3957 46.4239 74.7336 47.3772 75.353 48.1405C74.7331 48.9516 74.397 49.9438 74.3962 50.9646V56.1286C74.3963 57.5918 74.7229 59.0365 75.3522 60.3574C75.9816 61.6783 76.8978 62.8421 78.0341 63.7639L75.9016 64.1674C73.4041 64.6449 71.1511 65.9778 69.53 67.9368C67.9089 69.8957 67.021 72.3584 67.0191 74.9011V79.4288H51.0153V74.9034C51.0139 72.3603 50.1263 69.8971 48.5051 67.9377C46.884 65.9782 44.6306 64.645 42.1327 64.1674L40.0003 63.7616C41.1366 62.8398 42.0528 61.676 42.6821 60.3551C43.3115 59.0342 43.6381 57.5894 43.6381 56.1263V50.9623C43.6374 49.9415 43.3012 48.9493 42.6814 48.1382C43.3008 47.3749 43.6386 46.4216 43.6381 45.4386V41.3074C43.6381 40.8489 43.456 40.4091 43.1317 40.0848C42.8075 39.7606 42.3677 39.5784 41.9091 39.5784H28.2568C25.7209 39.5784 23.9527 42.0405 23.9527 44.2514V56.1286C23.9527 57.5918 24.2793 59.0365 24.9087 60.3574C25.538 61.6783 26.4543 62.8421 27.5905 63.7639L25.4581 64.1674C23.4239 64.5557 21.5424 65.5153 20.0336 66.9338V34.6588L22.3389 36.9641C22.8371 37.4611 23.5118 37.7404 24.2155 37.741C24.3599 37.741 24.504 37.7294 24.6466 37.7065C25.062 37.6371 25.455 37.4701 25.7932 37.2192C26.1315 36.9683 26.4054 36.6407 26.5923 36.2633L28.9207 31.5488H34.6841C35.4154 31.5505 36.1387 31.3971 36.8064 31.0986C37.474 30.8002 38.0707 30.3636 38.5571 29.8175ZM5.18706 28.0862C4.72908 28.0856 4.29 27.9035 3.96594 27.5799C3.64189 27.2563 3.45926 26.8175 3.45804 26.3595V5.18706C3.45865 4.72868 3.64101 4.28925 3.96513 3.96513C4.28925 3.64101 4.72868 3.45865 5.18706 3.45804H34.6956C35.154 3.45865 35.5935 3.64101 35.9176 3.96513C36.2417 4.28925 36.4241 4.72868 36.4247 5.18706V26.3595C36.4241 26.8179 36.2417 27.2573 35.9176 27.5814C35.5935 27.9055 35.154 28.0879 34.6956 28.0885H28.5703C28.0313 28.087 27.5029 28.2376 27.0457 28.5231C26.5885 28.8086 26.2212 29.2173 25.986 29.7022L23.9965 33.732L19.5287 29.2527L19.2083 28.9323C18.9412 28.6639 18.6236 28.4511 18.2738 28.3063C17.924 28.1614 17.5489 28.0874 17.1703 28.0885L5.18706 28.0862ZM114.576 95.1998C114.573 96.7125 113.97 98.1622 112.9 99.231C111.829 100.3 110.379 100.9 108.866 100.901H9.16841C7.65571 100.9 6.205 100.3 5.1345 99.231C4.06399 98.1622 3.46109 96.7125 3.45804 95.1998V91.6611H45.2957C45.3568 91.6611 45.4155 91.6854 45.4587 91.7286C45.5019 91.7718 45.5262 91.8305 45.5262 91.8916C45.5262 92.8699 45.9148 93.8081 46.6066 94.4998C47.2983 95.1916 48.2365 95.5802 49.2148 95.5802H68.838C69.8163 95.5802 70.7545 95.1916 71.4462 94.4998C72.138 93.8081 72.5266 92.8699 72.5266 91.8916C72.5266 91.8305 72.5509 91.7718 72.5941 91.7286C72.6373 91.6854 72.696 91.6611 72.7571 91.6611H114.576V95.1998ZM13.6938 14.3716H26.1889C26.6474 14.3716 27.0872 14.1894 27.4115 13.8652C27.7357 13.5409 27.9179 13.1012 27.9179 12.6426C27.9179 12.184 27.7357 11.7442 27.4115 11.42C27.0872 11.0957 26.6474 10.9136 26.1889 10.9136H13.6938C13.2353 10.9136 12.7955 11.0957 12.4712 11.42C12.147 11.7442 11.9648 12.184 11.9648 12.6426C11.9648 13.1012 12.147 13.5409 12.4712 13.8652C12.7955 14.1894 13.2353 14.3716 13.6938 14.3716ZM59.0172 66.7033C61.4059 66.7033 63.7411 65.9949 65.7272 64.6678C67.7134 63.3407 69.2615 61.4544 70.1756 59.2474C71.0897 57.0405 71.3289 54.6121 70.8629 52.2692C70.3969 49.9264 69.2466 47.7743 67.5575 46.0852C65.8684 44.3961 63.7163 43.2458 61.3734 42.7798C59.0306 42.3138 56.6021 42.5529 54.3952 43.4671C52.1883 44.3812 50.302 45.9292 48.9749 47.9154C47.6478 49.9016 46.9394 52.2367 46.9394 54.6255C46.9431 57.8276 48.2167 60.8975 50.481 63.1617C52.7452 65.4259 55.8151 66.6996 59.0172 66.7033ZM59.0172 46.0057C60.722 46.0057 62.3885 46.5113 63.8061 47.4584C65.2236 48.4056 66.3284 49.7518 66.9808 51.3269C67.6332 52.9019 67.8039 54.635 67.4713 56.3071C67.1387 57.9792 66.3177 59.5151 65.1123 60.7206C63.9068 61.926 62.3709 62.747 60.6988 63.0796C59.0267 63.4122 57.2936 63.2415 55.7186 62.5891C54.1435 61.9367 52.7973 60.8319 51.8501 59.4144C50.903 57.9968 50.3974 56.3303 50.3974 54.6255C50.3993 52.3397 51.3079 50.1481 52.924 48.5316C54.54 46.9151 56.7314 46.0059 59.0172 46.0034V46.0057ZM27.9179 19.561C27.9179 19.1024 27.7357 18.6626 27.4115 18.3384C27.0872 18.0141 26.6474 17.832 26.1889 17.832H13.6938C13.2353 17.832 12.7955 18.0141 12.4712 18.3384C12.147 18.6626 11.9648 19.1024 11.9648 19.561C11.9648 20.0195 12.147 20.4593 12.4712 20.7836C12.7955 21.1078 13.2353 21.29 13.6938 21.29H26.1889C26.6474 21.29 27.0872 21.1078 27.4115 20.7836C27.7357 20.4593 27.9179 20.0195 27.9179 19.561ZM56.9954 58.019C57.7998 58.8222 58.8901 59.2734 60.0269 59.2734C61.1637 59.2734 62.2541 58.8222 63.0585 58.019L63.1622 57.9152C63.3228 57.7546 63.4502 57.564 63.5371 57.3541C63.6241 57.1443 63.6688 56.9194 63.6688 56.6922C63.6688 56.4651 63.6241 56.2402 63.5371 56.0304C63.4502 55.8205 63.3228 55.6298 63.1622 55.4692C63.0016 55.3086 62.8109 55.1812 62.6011 55.0943C62.3913 55.0074 62.1664 54.9627 61.9392 54.9627C61.7121 54.9627 61.4872 55.0074 61.2773 55.0943C61.0675 55.1812 60.8768 55.3086 60.7162 55.4692L60.6148 55.573C60.4589 55.728 60.2479 55.815 60.0281 55.815C59.8082 55.815 59.5973 55.728 59.4414 55.573L58.0582 54.1898C57.9032 54.0338 57.8162 53.8229 57.8162 53.6031C57.8162 53.3832 57.9032 53.1723 58.0582 53.0163L58.1596 52.9149C58.4747 52.589 58.6492 52.1523 58.6455 51.6989C58.6417 51.2456 58.4601 50.8118 58.1397 50.4911C57.8193 50.1704 57.3857 49.9883 56.9323 49.9842C56.479 49.98 56.0422 50.1541 55.7159 50.4689L55.6122 50.5727C54.8095 51.3774 54.3587 52.4676 54.3587 53.6042C54.3587 54.7408 54.8095 55.831 55.6122 56.6357L56.9954 58.019Z" fill="#1A0859"/>
</svg>
